<svg width="128" height="128" viewBox="0 0 128 128" fill="none" xmlns="http://www.w3.org/2000/svg">
<rect x="0.000244141" y="-1.52588e-05" width="128" height="128" rx="15" fill="white"/>
<ellipse cx="36.0293" cy="37.1149" rx="36.0293" ry="37.1149" transform="matrix(-0.00474341 0.999989 0.999989 0.00474341 51.7808 4.48317)" fill="url(#paint0_linear_5_12)"/>
<ellipse cx="19.6764" cy="19.4548" rx="19.6764" ry="19.4548" transform="matrix(0.690169 0.723648 0.723648 -0.690169 6 95.8542)" fill="url(#paint1_linear_5_12)"/>
<mask id="path-4-outside-1_5_12" maskUnits="userSpaceOnUse" x="12" y="31" width="103" height="70" fill="black">
<rect fill="white" x="12" y="31" width="103" height="70"/>
<path d="M43.432 32.032H55.72L63.496 54.592L71.368 32.032H83.56L71.848 63.04L80.488 84.736L99.784 31.84H114.184L86.92 100H75.496L63.496 71.392L51.592 100H40.168L13 31.84H27.208L46.6 84.736L55.048 63.04L43.432 32.032Z"/>
</mask>
<path d="M43.432 32.032H55.72L63.496 54.592L71.368 32.032H83.56L71.848 63.04L80.488 84.736L99.784 31.84H114.184L86.92 100H75.496L63.496 71.392L51.592 100H40.168L13 31.84H27.208L46.6 84.736L55.048 63.04L43.432 32.032Z" fill="#95B6A1" style="mix-blend-mode:difference"/>
<path d="M43.432 32.032V31.732H42.9993L43.1511 32.1372L43.432 32.032ZM55.72 32.032L56.0036 31.9342L55.9339 31.732H55.72V32.032ZM63.496 54.592L63.2124 54.6898L63.4943 55.5076L63.7793 54.6908L63.496 54.592ZM71.368 32.032V31.732H71.1549L71.0848 31.9332L71.368 32.032ZM83.56 32.032L83.8406 32.138L83.994 31.732H83.56V32.032ZM71.848 63.04L71.5674 62.934L71.5262 63.0429L71.5693 63.151L71.848 63.04ZM80.488 84.736L80.2093 84.847L80.5003 85.5777L80.7698 84.8388L80.488 84.736ZM99.784 31.84V31.54H99.5741L99.5022 31.7372L99.784 31.84ZM114.184 31.84L114.463 31.9514L114.627 31.54H114.184V31.84ZM86.92 100V100.3H87.1231L87.1985 100.111L86.92 100ZM75.496 100L75.2194 100.116L75.2965 100.3H75.496V100ZM63.496 71.392L63.7726 71.276L63.4949 70.6138L63.219 71.2767L63.496 71.392ZM51.592 100V100.3H51.7921L51.869 100.115L51.592 100ZM40.168 100L39.8893 100.111L39.9646 100.3H40.168V100ZM13 31.84V31.54H12.5575L12.7213 31.9511L13 31.84ZM27.208 31.84L27.4897 31.7367L27.4175 31.54H27.208V31.84ZM46.6 84.736L46.3183 84.8393L46.5915 85.5845L46.8796 84.8449L46.6 84.736ZM55.048 63.04L55.3276 63.1489L55.3691 63.0421L55.3289 62.9348L55.048 63.04ZM43.432 32.332H55.72V31.732H43.432V32.332ZM55.4364 32.1298L63.2124 54.6898L63.7796 54.4942L56.0036 31.9342L55.4364 32.1298ZM63.7793 54.6908L71.6513 32.1308L71.0848 31.9332L63.2128 54.4932L63.7793 54.6908ZM71.368 32.332H83.56V31.732H71.368V32.332ZM83.2794 31.926L71.5674 62.934L72.1287 63.146L83.8406 32.138L83.2794 31.926ZM71.5693 63.151L80.2093 84.847L80.7667 84.625L72.1267 62.929L71.5693 63.151ZM80.7698 84.8388L100.066 31.9428L99.5022 31.7372L80.2062 84.6332L80.7698 84.8388ZM99.784 32.14H114.184V31.54H99.784V32.14ZM113.905 31.7286L86.6415 99.8886L87.1985 100.111L114.463 31.9514L113.905 31.7286ZM86.92 99.7H75.496V100.3H86.92V99.7ZM75.7726 99.884L63.7726 71.276L63.2194 71.508L75.2194 100.116L75.7726 99.884ZM63.219 71.2767L51.315 99.8847L51.869 100.115L63.773 71.5073L63.219 71.2767ZM51.592 99.7H40.168V100.3H51.592V99.7ZM40.4467 99.8889L13.2787 31.7289L12.7213 31.9511L39.8893 100.111L40.4467 99.8889ZM13 32.14H27.208V31.54H13V32.14ZM26.9263 31.9433L46.3183 84.8393L46.8817 84.6327L27.4897 31.7367L26.9263 31.9433ZM46.8796 84.8449L55.3276 63.1489L54.7684 62.9311L46.3204 84.6271L46.8796 84.8449ZM55.3289 62.9348L43.7129 31.9268L43.1511 32.1372L54.7671 63.1452L55.3289 62.9348Z" fill="white" mask="url(#path-4-outside-1_5_12)"/>
<defs>
<linearGradient id="paint0_linear_5_12" x1="72.0585" y1="37.1149" x2="0" y2="37.1149" gradientUnits="userSpaceOnUse">
<stop stop-color="#4692E4"/>
<stop offset="1" stop-color="#46E4E4"/>
</linearGradient>
<linearGradient id="paint1_linear_5_12" x1="39.3528" y1="19.4548" x2="0" y2="19.4548" gradientUnits="userSpaceOnUse">
<stop stop-color="#4692E4"/>
<stop offset="1" stop-color="#46E4E4"/>
</linearGradient>
</defs>
</svg>
