<svg width="5579" height="3333" viewBox="0 0 5579 3333" fill="none" xmlns="http://www.w3.org/2000/svg">
<path d="M5000 1954V0L0 0V3333L3621 3333C4382.6 3333 5000 2715.6 5000 1954Z" fill="#D3FFF0"/>
<path d="M2897 2884V1447L1460 1447C1459.88 1635.67 1496.96 1822.51 1569.12 1996.85C1641.28 2171.19 1747.11 2329.61 1880.56 2463.06C2014.01 2596.51 2172.46 2702.37 2346.87 2774.6C2521.27 2846.82 2708.21 2884 2897 2884V2884Z" fill="#97D7EE"/>
<path d="M1465 2884L1465 1447L28.0003 1447C27.8785 1635.67 64.9576 1822.51 137.119 1996.85C209.28 2171.19 315.11 2329.61 448.56 2463.06C582.01 2596.51 740.464 2702.37 914.87 2774.6C1089.28 2846.82 1276.21 2884 1465 2884V2884Z" fill="#46E4E4"/>
<path d="M30.0004 10C29.7542 390.763 180.783 756.038 449.88 1025.51C718.977 1294.98 1084.11 1446.59 1465 1447L1465 10L30.0004 10Z" fill="#97D7EE"/>
<path d="M5455.68 1118.05C5459.38 1113.42 5463.08 1108.79 5466.6 1103.98L4684.84 322.4C4680.21 325.919 4675.39 329.622 4670.76 333.325L5455.68 1118.05Z" fill="#46E4E4"/>
<path d="M5556.05 927.127C5557.9 920.646 5559.75 914.165 5561.42 907.499L4881.5 227.576C4875.02 229.243 4868.54 231.094 4861.87 232.946L5556.05 927.127Z" fill="#46E4E4"/>
<path d="M5496.04 1061.21C5499.18 1056.02 5502.33 1050.84 5505.29 1045.65L4743.34 283.703C4738.16 286.666 4732.97 289.814 4727.79 292.961L5496.04 1061.21Z" fill="#46E4E4"/>
<path d="M5529.75 997.874C5532.34 992.134 5534.93 986.394 5537.34 980.469L4808.53 251.662C4802.79 254.069 4796.87 256.662 4791.13 259.254L5529.75 997.874Z" fill="#46E4E4"/>
<path d="M5573.47 847.343C5574.58 839.936 5575.32 832.53 5576.25 825.123L4963.73 212.785C4956.32 213.526 4948.91 214.452 4941.51 215.563L5573.47 847.343Z" fill="#46E4E4"/>
<path d="M5415.72 1162.67C5417.76 1160.64 5419.79 1158.42 5421.83 1156.38L4632.66 367.209C4630.62 369.246 4628.4 371.283 4626.36 373.319C4624.33 375.356 4622.29 377.578 4620.25 379.615L5409.42 1168.79C5411.46 1166.75 5413.68 1164.71 5415.72 1162.67Z" fill="#46E4E4"/>
<path d="M5579 755.864C5578.81 747.161 5578.44 738.459 5577.89 729.756L5059.43 211.296C5050.54 210.555 5041.84 210.185 5033.14 210L5579 755.864Z" fill="#46E4E4"/>
<path d="M5143.85 223.525L5565.47 645.144C5562.88 633.849 5560.1 622.739 5556.77 611.63L5177.18 232.043C5166.26 228.895 5154.96 225.933 5143.85 223.525Z" fill="#46E4E4"/>
<path d="M4982.57 1324.89C4991.28 1325.44 4999.98 1325.81 5008.68 1326L4463 780.32C4463.19 789.023 4463.56 797.726 4464.11 806.428L4982.57 1324.89Z" fill="#46E4E4"/>
<path d="M5078.1 1323.2C5085.51 1322.46 5092.92 1321.53 5100.32 1320.42L4468.36 688.642C4467.25 696.048 4466.51 703.455 4465.58 710.861L5078.1 1323.2Z" fill="#46E4E4"/>
<path d="M5501.97 484.598C5478.45 444.973 5449.75 407.57 5415.68 373.499C5381.61 339.429 5344.21 310.729 5304.58 287.213L5501.97 484.598Z" fill="#46E4E4"/>
<path d="M4864.65 1303.94C4875.76 1307.09 4886.87 1310.05 4898.16 1312.64L4476.54 890.839C4479.13 902.134 4481.91 913.244 4485.24 924.354L4864.65 1303.94Z" fill="#46E4E4"/>
<path d="M4540.06 1051.56C4563.58 1091.18 4592.28 1128.58 4626.35 1162.66C4660.42 1196.73 4697.82 1225.43 4737.44 1248.94L4540.06 1051.56Z" fill="#46E4E4"/>
<path d="M5298.65 1252.3C5303.83 1249.34 5309.02 1246.19 5314.2 1243.05L4545.96 474.8C4542.81 479.984 4539.66 485.169 4536.7 490.354L5298.65 1252.3Z" fill="#46E4E4"/>
<path d="M5356.98 1213.78C5361.61 1210.27 5366.42 1206.56 5371.05 1202.86L4586.14 417.948C4582.44 422.577 4578.73 427.206 4575.22 432.021L5356.98 1213.78Z" fill="#46E4E4"/>
<path d="M5160.55 1308.56C5167.03 1306.9 5173.51 1305.04 5180.17 1303.19L4485.81 608.826C4483.96 615.307 4482.1 621.788 4480.44 628.454L5160.55 1308.56Z" fill="#46E4E4"/>
<path d="M5233.51 1284.34C5239.25 1281.93 5245.17 1279.34 5250.91 1276.74L4512.29 538.124C4509.7 543.864 4507.11 549.604 4504.7 555.529L5233.51 1284.34Z" fill="#46E4E4"/>
<path d="M4069.88 2724L3558.51 3235.37H3587.63L4099 2724H4069.88Z" fill="white"/>
<path d="M3805.14 2724L3293.77 3235.37H3323.1L3834.46 2724H3805.14Z" fill="white"/>
<path d="M3540.57 2724L3029.21 3235.37H3058.33L3569.69 2724H3540.57Z" fill="white"/>
<path d="M3275.96 2724L2764.59 3235.37H2793.71L3305.08 2724H3275.96Z" fill="white"/>
<path d="M3011.21 2724L2499.85 3235.37H2529.18L3040.54 2724H3011.21Z" fill="white"/>
<path d="M2746.64 2724L2235.28 3235.37H2264.4L2775.76 2724H2746.64Z" fill="white"/>
<path d="M2482.11 2724L1970.75 3235.37H1999.87L2511.23 2724H2482.11Z" fill="white"/>
<path d="M2217.29 2724L1705.92 3235.37H1735.25L2246.61 2724H2217.29Z" fill="white"/>
<path d="M1952.76 2724L1441.39 3235.37H1470.72L1982.08 2724H1952.76Z" fill="white"/>
<path d="M1688.18 2724L1176.82 3235.37H1205.94L1717.3 2724H1688.18Z" fill="white"/>
<path d="M1423.65 2724L912.282 3235.37H941.402L1452.77 2724H1423.65Z" fill="white"/>
<path d="M1158.83 2724L647.462 3235.37H676.789L1188.15 2724H1158.83Z" fill="white"/>
<path d="M894.26 2724L382.895 3235.37H412.015L923.381 2724H894.26Z" fill="white"/>
<path d="M629.724 2724L118.359 3235.37H147.48L658.845 2724H629.724Z" fill="white"/>
</svg>
