<svg width="3366" height="5663" viewBox="0 0 3366 5663" fill="none" xmlns="http://www.w3.org/2000/svg">
<path d="M3366 663H1274C588.062 663 32 1219.06 32 1905V5663H3366V663Z" fill="#D2FEEE"/>
<path d="M353.86 5663.02L783.508 5233.59L1212.94 5663.02H1327.74L783.508 5118.79L239.273 5663.02H353.86Z" fill="#46E4E4"/>
<path d="M33 5181.52V5296.32L783.492 4545.83L1533.98 5296.32V5181.52L783.492 4431.24L33 5181.52Z" fill="#46E4E4"/>
<path d="M33 5525.51V5640.1L783.492 4889.61L1533.98 5640.1V5525.51L783.492 4775.02L33 5525.51Z" fill="#46E4E4"/>
<path d="M56.7741 2751L33 2774.99V2889.58L171.575 2751H56.7741Z" fill="#46E4E4"/>
<path d="M400.749 2751L33 3118.75V3233.34L515.336 2751H400.749Z" fill="#46E4E4"/>
<path d="M697.601 5663.04L783.487 5577.37L869.16 5663.04H983.961L783.487 5462.57L583.014 5663.04H697.601Z" fill="#46E4E4"/>
<path d="M744.511 2751L33 3462.51V3577.31L783.492 2826.82L1533.98 3577.31V3462.51L822.473 2751H744.511Z" fill="#46E4E4"/>
<path d="M1051.45 2751L1534 3233.34V3118.75L1166.25 2751H1051.45Z" fill="#46E4E4"/>
<path d="M1395.39 2751L1533.97 2889.58V2774.99L1509.98 2751H1395.39Z" fill="#46E4E4"/>
<path d="M33 4494.01V4608.59L783.492 3858.32L1533.98 4608.59V4494.01L783.492 3743.52L33 4494.01Z" fill="#46E4E4"/>
<path d="M33 4837.79V4952.59L783.492 4202.1L1533.98 4952.59V4837.79L783.492 4087.3L33 4837.79Z" fill="#46E4E4"/>
<path d="M33 3806.23V3921.03L783.492 3170.54L1533.98 3921.03V3806.23L783.492 3055.96L33 3806.23Z" fill="#46E4E4"/>
<path d="M33 4150.23V4264.81L783.492 3514.32L1533.98 4264.81V4150.23L783.492 3399.74L33 4150.23Z" fill="#46E4E4"/>
<path d="M3365.99 5230.7V5663.03H2933.66V5230.7H3365.99ZM3345.31 5642.35V5251.38H2954.34V5642.35H3345.31Z" fill="#46E4E4"/>
<path d="M2954.34 4819.06V5251.39H2522.02V4819.06H2954.34ZM2933.67 5230.71V4839.74H2542.69V5230.71H2933.67Z" fill="#46E4E4"/>
<path d="M2954.34 4407.63V4839.68H2522.02V4407.63H2954.34ZM2933.67 4819V4428.31H2542.69V4819.28H2933.67V4819Z" fill="#46E4E4"/>
<path d="M2542.7 4819.06V5251.39H2110.64V4819.06H2542.7ZM2522.02 5230.71V4839.74H2131.32V5230.71H2522.02Z" fill="#46E4E4"/>
<path d="M3365.99 4819.06V5251.39H2933.66V4819.06H3365.99ZM3345.31 5230.71V4839.74H2954.34V5230.71H3345.31Z" fill="#46E4E4"/>
<path d="M3365.99 4407.63V4839.68H2933.66V4407.63H3365.99ZM3345.31 4819V4428.31H2954.34V4819.28H3345.31V4819Z" fill="#46E4E4"/>
<path d="M3365.99 3995.98V4428.31H2933.66V3995.98H3365.99ZM3345.31 4407.63V4016.66H2954.34V4407.63H3345.31Z" fill="#46E4E4"/>
<path d="M2954.34 5230.7V5663.03H2522.02V5230.7H2954.34ZM2933.67 5642.35V5251.38H2542.69V5642.35H2933.67Z" fill="#46E4E4"/>
<path d="M2542.7 5230.7V5663.03H2110.64V5230.7H2542.7ZM2522.02 5642.35V5251.38H2131.32V5642.35H2522.02Z" fill="#46E4E4"/>
<path d="M2131.33 5230.7V5663.03H1699V5230.7H2131.33ZM2110.65 5642.35V5251.38H1719.68V5642.35H2110.65Z" fill="#46E4E4"/>
<path d="M903.157 1860C888.862 1859.69 877.709 1847.75 878.18 1833.61C878.494 1819.32 890.433 1808.17 904.571 1808.49C918.71 1808.8 929.863 1820.74 929.549 1835.03C929.235 1848.85 917.767 1860 903.786 1860C903.629 1860 903.472 1860 903.157 1860ZM981.546 1833.46C980.446 1819.32 990.814 1806.92 1004.95 1805.66C1019.09 1804.4 1031.5 1814.93 1032.91 1829.06C1034.01 1843.2 1023.49 1855.6 1009.35 1857.02C1009.35 1857.02 1009.35 1857.02 1009.35 1856.86C1008.72 1857.02 1007.94 1857.02 1007.15 1857.02C993.799 1857.02 982.646 1846.96 981.546 1833.46ZM797.278 1851.2C783.14 1849.16 773.4 1836.13 775.442 1822.15C777.484 1808.01 790.523 1798.28 804.504 1800.32C818.485 1802.2 828.225 1815.24 826.34 1829.37C824.612 1842.25 813.458 1851.52 800.891 1851.52C799.791 1851.36 798.535 1851.2 797.278 1851.2ZM1084.13 1821.84C1081.46 1808.02 1090.41 1794.35 1104.23 1791.68C1118.06 1788.85 1131.73 1797.81 1134.55 1811.78C1137.22 1825.61 1128.27 1839.27 1114.29 1842.1C1112.56 1842.41 1110.99 1842.57 1109.1 1842.57C1097.32 1842.57 1086.64 1834.09 1084.13 1821.84ZM693.126 1830.16C679.302 1826.55 671.134 1812.57 674.747 1798.75C678.36 1784.93 692.341 1776.76 706.165 1780.37C719.989 1783.99 728.158 1797.96 724.545 1811.78C721.403 1823.41 711.035 1831.1 699.724 1831.1C697.525 1831.1 695.326 1830.63 693.126 1830.16ZM1184.82 1798.43C1180.42 1784.93 1187.96 1770.48 1201.32 1766.08H1201.47C1214.98 1761.68 1229.44 1769.22 1233.83 1782.73C1238.23 1796.24 1230.69 1810.68 1217.18 1815.08C1214.67 1815.87 1211.84 1816.18 1209.17 1816.18C1198.33 1816.18 1188.44 1809.27 1184.82 1798.43ZM591.96 1797.34C578.921 1792.15 572.323 1777.23 577.35 1764.04C582.691 1750.85 597.458 1744.25 610.811 1749.43H610.654C623.849 1754.62 630.447 1769.54 625.263 1782.73C621.336 1792.94 611.596 1799.22 601.385 1799.22C598.243 1799.22 595.102 1798.59 591.96 1797.34ZM1282.06 1763.73C1276.09 1750.69 1281.75 1735.61 1294.79 1729.64C1307.67 1723.68 1322.91 1729.33 1328.87 1742.21C1334.84 1755.24 1329.03 1770.32 1316.15 1776.45C1312.69 1778.02 1309.08 1778.8 1305.47 1778.8C1295.73 1778.8 1286.46 1773.15 1282.06 1763.73ZM495.349 1753.36C482.781 1746.61 477.912 1731.06 484.509 1718.65C491.264 1706.09 506.816 1701.22 519.227 1707.81C531.794 1714.57 536.664 1730.12 530.066 1742.52C525.51 1751.32 516.399 1756.34 507.288 1756.34C503.203 1756.19 499.119 1755.4 495.349 1753.36ZM1374.75 1718.02C1367.36 1705.77 1371.45 1690.07 1383.54 1682.69C1395.8 1675.3 1411.5 1679.23 1418.89 1691.32C1426.27 1703.57 1422.19 1719.28 1410.09 1726.66C1406.01 1729.17 1401.29 1730.43 1396.9 1730.43C1388.1 1730.43 1379.62 1726.03 1374.75 1718.02ZM404.393 1698.39C392.768 1690.38 389.783 1674.36 397.638 1662.58C405.65 1650.8 421.673 1647.98 433.455 1655.83C445.237 1663.84 448.064 1679.86 440.21 1691.64C435.183 1698.86 427.171 1702.79 419.002 1702.79C413.818 1702.95 408.791 1701.53 404.393 1698.39ZM1461.62 1661.95C1452.82 1650.8 1454.86 1634.63 1466.17 1625.99C1477.33 1617.19 1493.51 1619.24 1502.15 1630.7C1510.94 1641.85 1508.9 1658.03 1497.59 1666.67C1493.03 1670.44 1487.38 1672.01 1481.88 1672.01C1474.18 1672.01 1466.64 1668.55 1461.62 1661.95ZM320.192 1633.68C309.353 1624.26 308.253 1608.08 317.679 1597.25C326.947 1586.57 343.127 1585.47 353.967 1594.74C364.649 1604 365.748 1620.34 356.48 1631.01C351.296 1636.98 344.227 1639.97 337.001 1639.97C331.031 1639.81 325.219 1637.77 320.192 1633.68ZM1541.42 1596.62C1531.52 1586.41 1531.84 1570.08 1541.89 1560.18C1552.1 1550.29 1568.44 1550.6 1578.34 1560.65C1588.23 1570.86 1587.92 1587.2 1577.86 1597.09C1572.84 1601.96 1566.4 1604.47 1559.96 1604.47C1553.36 1604.47 1546.6 1601.8 1541.42 1596.62ZM244.003 1559.56C234.42 1549.19 235.206 1532.86 245.574 1523.12C255.942 1513.54 272.279 1514.32 281.862 1524.85C291.444 1535.21 290.816 1551.39 280.448 1561.13C275.421 1565.68 269.294 1567.88 263.011 1567.88C255.942 1567.88 249.187 1565.05 244.003 1559.56ZM1613.52 1522.49C1602.53 1513.54 1600.96 1497.36 1609.91 1486.21C1618.86 1475.22 1635.05 1473.65 1646.2 1482.6C1657.2 1491.55 1658.77 1507.73 1649.81 1518.88C1644.63 1525 1637.4 1528.3 1629.86 1528.3C1624.21 1528.3 1618.39 1526.42 1613.52 1522.49ZM176.768 1477.42C168.442 1465.95 170.798 1449.93 182.266 1441.61C193.891 1433.28 209.914 1435.64 218.24 1447.26C226.566 1458.73 224.052 1474.75 212.585 1483.07C207.872 1486.37 202.688 1487.94 197.347 1487.94C189.649 1487.94 181.795 1484.33 176.768 1477.42ZM1676.67 1440.67C1664.74 1432.97 1661.44 1417.11 1669.13 1405.17C1676.67 1393.23 1692.7 1389.78 1704.64 1397.48C1716.58 1405.17 1720.03 1421.19 1712.33 1432.97C1707.46 1440.67 1699.14 1444.75 1690.66 1444.75C1685.79 1444.75 1681.07 1443.49 1676.67 1440.67ZM119.115 1388.21C112.046 1375.8 116.445 1360.1 128.855 1353.19C141.265 1346.12 156.817 1350.52 163.886 1362.77C170.798 1375.17 166.4 1390.72 154.304 1397.79C150.219 1400.15 145.821 1401.24 141.579 1401.24C132.468 1401.24 123.985 1396.53 119.115 1388.21ZM1730.09 1352.24C1717.36 1345.96 1712.02 1330.73 1718.3 1317.85C1724.59 1305.13 1739.98 1299.94 1752.71 1306.23C1765.43 1312.51 1770.77 1327.9 1764.49 1340.62C1759.93 1349.73 1750.82 1355.07 1741.4 1355.07C1737.78 1354.91 1733.86 1353.97 1730.09 1352.24ZM72.145 1293.03C66.6468 1279.84 72.7734 1264.92 85.8119 1259.27C98.8505 1253.93 113.931 1259.9 119.587 1273.09C125.085 1286.12 118.958 1301.2 105.763 1306.7C102.621 1308.11 99.0076 1308.74 95.7087 1308.74C85.8119 1308.74 76.3865 1302.77 72.145 1293.03ZM1773.13 1258.17C1759.78 1253.46 1752.86 1238.69 1757.58 1225.19C1762.29 1211.84 1777.06 1204.93 1790.57 1209.64C1803.92 1214.35 1810.83 1229.11 1806.12 1242.62C1802.35 1253.14 1792.45 1259.74 1781.93 1259.74C1778.78 1259.74 1775.96 1259.27 1773.13 1258.17ZM36.3282 1192.99C32.4009 1179.33 40.0984 1165.03 53.6082 1161.11C67.2752 1157.03 81.5705 1164.88 85.6548 1178.54C89.5821 1192.21 81.7276 1206.5 68.2177 1210.42C65.7043 1211.21 63.3479 1211.52 60.9915 1211.52C49.838 1211.37 39.6271 1204.3 36.3282 1192.99ZM1805.02 1159.85C1791.19 1156.71 1782.71 1142.89 1785.85 1129.07C1788.99 1115.25 1802.82 1106.77 1816.64 1109.91C1830.47 1113.05 1838.95 1126.87 1835.81 1140.69C1833.14 1152.47 1822.61 1160.48 1810.83 1160.48C1808.95 1160.48 1807.06 1160.32 1805.02 1159.85ZM12.2932 1089.49C9.77978 1075.51 19.2053 1062.16 33.1864 1059.81C47.1675 1057.3 60.5202 1066.72 62.8766 1080.7C65.3901 1094.67 55.9646 1108.02 41.9835 1110.38C40.4126 1110.69 38.9988 1110.69 37.5849 1110.69C25.3318 1110.85 14.3354 1102.06 12.2932 1089.49ZM1825.44 1058.55C1811.3 1056.98 1801.09 1044.26 1802.82 1030.13C1804.39 1015.99 1817.11 1005.94 1831.25 1007.51C1845.39 1009.08 1855.6 1021.96 1853.87 1035.94C1852.46 1048.97 1841.31 1058.87 1828.42 1058.87C1827.32 1058.87 1826.38 1058.71 1825.44 1058.55ZM0.0401305 983.951C-0.745325 969.817 10.094 957.723 24.3893 956.781C38.5275 955.996 50.6235 966.833 51.566 981.124C52.3515 995.259 41.5122 1007.35 27.374 1008.29C26.9027 1008.29 26.2744 1008.29 25.8031 1008.29C12.2932 1008.29 0.982678 997.772 0.0401305 983.951ZM1808.47 930.082C1808.47 929.768 1808.47 929.454 1808.47 928.982C1808.47 928.668 1808.47 928.511 1808.47 928.04C1808.32 913.905 1819.94 902.283 1834.08 902.283C1848.38 902.283 1859.84 913.748 1860 928.04C1860 928.354 1860 928.668 1860 928.982C1860 929.297 1860 929.611 1860 930.082C1860 944.217 1848.38 955.839 1834.24 955.839C1819.94 955.682 1808.47 944.217 1808.47 930.082ZM24.2322 905.11C10.094 904.168 -0.745325 892.075 0.0401305 877.94C0.825587 863.648 12.9216 852.811 27.0598 853.596C41.3551 854.382 52.1944 866.632 51.409 880.767C50.6235 894.431 39.3129 905.11 25.646 905.11C25.3318 905.11 24.7034 905.11 24.2322 905.11ZM1802.5 827.997C1800.78 813.862 1810.99 801.14 1825.13 799.413C1839.26 797.842 1851.99 807.894 1853.56 822.029C1855.29 836.163 1845.23 848.885 1831.1 850.455C1830 850.612 1829.05 850.769 1828.11 850.769C1815.07 850.769 1804.08 841.032 1802.5 827.997ZM33.0293 802.083C19.0482 799.57 9.62269 786.377 11.9791 772.399C14.4925 758.422 27.6882 748.998 41.6693 751.354C55.6504 753.867 65.0759 767.06 62.5624 781.037C60.5202 793.602 49.5239 802.554 37.2707 802.554C35.8569 802.554 34.4431 802.397 33.0293 802.083ZM1785.22 729.052C1782.08 715.232 1790.57 701.411 1804.55 698.27C1818.37 695.129 1832.19 703.61 1835.34 717.43C1838.48 731.251 1830 745.072 1816.17 748.213C1814.13 748.684 1812.24 748.998 1810.2 748.998C1798.73 748.998 1788.05 740.831 1785.22 729.052ZM53.137 700.783C39.47 696.856 31.7726 682.564 35.6998 668.901C39.7842 655.237 54.0795 647.384 67.5893 651.468C81.4134 655.394 89.1108 669.686 85.1836 683.35C81.8846 694.5 71.5166 701.882 60.3632 701.882C58.0068 701.882 55.6504 701.411 53.137 700.783ZM1756.79 632.935C1752.08 619.586 1758.99 604.822 1772.34 599.954C1785.7 595.242 1800.31 602.153 1805.33 615.502C1810.04 628.852 1803.13 643.458 1789.78 648.326C1786.95 649.426 1783.97 649.897 1780.98 649.897C1770.46 649.897 1760.72 643.301 1756.79 632.935ZM85.0265 602.467C71.9879 596.97 65.7043 581.893 71.2024 568.857C76.7006 555.822 91.9385 549.539 104.82 555.036C117.859 560.533 124.142 575.767 118.644 588.646C114.56 598.54 104.977 604.508 94.9232 604.508C91.7814 604.508 88.3254 603.88 85.0265 602.467ZM1717.68 540.587C1711.39 527.866 1716.58 512.475 1729.3 506.192C1742.02 499.91 1757.42 505.093 1763.7 517.814C1763.7 517.814 1763.7 517.814 1763.7 517.971C1769.99 530.693 1764.8 545.927 1752.08 552.366C1748.31 554.251 1744.54 555.036 1740.61 555.036C1731.34 554.879 1722.07 549.539 1717.68 540.587ZM127.912 508.391C115.502 501.324 111.261 485.618 118.33 473.211C125.242 460.804 140.951 456.563 153.361 463.474C165.771 470.384 170.013 486.089 163.101 498.497V498.654C158.388 506.978 149.591 511.689 140.637 511.689C136.238 511.689 131.84 510.59 127.912 508.391ZM1668.03 453.265C1660.34 441.486 1663.79 425.467 1675.73 417.771C1687.67 410.075 1703.54 413.53 1711.23 425.309C1718.93 437.246 1715.63 453.265 1703.69 460.961C1699.3 463.788 1694.58 465.044 1689.87 465.044C1681.23 465.201 1673.06 460.961 1668.03 453.265ZM181.323 419.97C169.699 411.646 167.185 395.469 175.511 384.161C183.837 372.539 200.017 370.183 211.485 378.35C222.953 386.674 225.466 402.694 217.14 414.316C212.113 421.226 204.259 424.838 196.247 424.838C191.22 424.838 185.879 423.268 181.323 419.97ZM1608.81 372.382C1599.86 361.388 1601.43 345.212 1612.42 336.26C1623.42 327.308 1639.6 328.878 1648.56 339.715C1657.51 350.709 1655.94 367.042 1645.1 375.994C1640.23 379.921 1634.42 381.805 1628.76 381.805C1621.38 381.648 1614 378.507 1608.81 372.382ZM244.474 337.987C234.106 328.407 233.321 312.073 242.903 301.708C252.486 291.185 268.823 290.557 279.191 299.98C289.716 309.56 290.345 325.894 280.919 336.417C275.735 341.914 268.823 344.741 261.911 344.741C255.628 344.741 249.344 342.542 244.474 337.987ZM1540.79 298.567C1530.58 288.829 1530.42 272.496 1540.32 262.287C1550.06 252.079 1566.4 251.765 1576.61 261.659C1586.82 271.553 1587.13 287.887 1577.24 298.096C1572.21 303.278 1565.45 305.948 1558.7 305.948C1552.26 305.791 1545.82 303.435 1540.79 298.567ZM316.422 264.015C306.996 253.178 308.253 237.001 318.935 227.578C318.935 227.578 318.935 227.578 318.935 227.735C329.775 218.312 345.955 219.568 355.223 230.248C364.649 240.928 363.392 257.104 352.71 266.528C347.84 270.768 341.713 272.81 335.901 272.81C328.675 272.653 321.449 269.669 316.422 264.015ZM1464.92 232.918C1453.76 224.28 1451.56 208.103 1460.36 196.953C1469 185.645 1485.18 183.603 1496.33 192.241C1507.64 200.879 1509.69 217.056 1501.05 228.206C1495.86 234.96 1488.32 238.258 1480.62 238.258C1475.13 238.258 1469.63 236.53 1464.92 232.918ZM396.224 198.366C388.055 186.587 391.04 170.567 402.822 162.558C414.447 154.391 430.627 157.375 438.639 169.154C446.65 180.776 443.666 196.953 431.884 204.962C427.328 208.103 422.301 209.674 417.274 209.674C409.263 209.517 401.251 205.591 396.224 198.366ZM1381.97 176.378C1369.72 168.997 1365.79 153.291 1373.17 141.041C1380.56 128.948 1396.27 125.022 1408.52 132.246C1420.62 139.628 1424.54 155.333 1417.32 167.583C1412.6 175.593 1403.96 179.991 1395.17 179.991C1390.61 180.148 1386.21 178.891 1381.97 176.378ZM483.096 142.298C476.341 129.733 481.21 114.185 493.778 107.589C506.188 100.835 521.74 105.704 528.495 118.111C535.25 130.676 530.38 146.224 517.813 152.977C513.885 155.019 509.801 155.961 505.874 155.961C496.605 155.961 487.651 151.093 483.096 142.298ZM1293.21 129.576C1280.18 123.608 1274.52 108.531 1280.49 95.4955C1286.46 82.6171 1301.54 76.8061 1314.42 82.7742C1314.42 82.7742 1314.42 82.7742 1314.58 82.7742C1327.46 88.7422 1333.27 103.819 1327.3 116.855C1322.91 126.435 1313.48 131.932 1303.9 131.932C1300.28 131.932 1296.67 131.147 1293.21 129.576ZM575.622 96.5949C570.438 83.4024 577.036 68.4822 590.232 63.2994C603.427 58.1166 618.194 64.5559 623.535 77.7484C628.719 90.941 622.121 105.861 608.926 111.044C605.784 112.3 602.799 112.772 599.5 112.772C589.289 112.929 579.707 106.646 575.622 96.5949ZM1199.59 93.2968C1186.08 88.8993 1178.7 74.4503 1182.94 60.9436C1187.34 47.4369 1201.79 40.0554 1215.3 44.2959C1228.81 48.6934 1236.19 63.1424 1231.95 76.649C1228.34 87.6428 1218.28 94.5532 1207.44 94.5532C1204.77 94.5532 1202.1 94.2391 1199.59 93.2968ZM673.019 61.7289C669.406 47.9081 677.574 33.9303 691.241 30.318C705.065 26.5487 719.047 34.8726 722.817 48.5363C726.43 62.3571 718.261 76.3349 704.437 79.9472C702.238 80.5754 700.038 80.8895 697.839 80.8895C686.372 80.8895 676.004 73.1938 673.019 61.7289ZM1102.35 68.0111C1088.53 65.3411 1079.41 51.6774 1082.08 37.8566C1084.91 24.0359 1098.42 14.7697 1112.4 17.7537C1126.23 20.5807 1135.34 34.0873 1132.51 47.9081C1130 60.1583 1119.31 68.6393 1107.38 68.6393C1105.81 68.4822 1104.08 68.3252 1102.35 68.0111ZM773.557 38.3278C771.672 24.1929 781.255 11.1574 795.393 9.11571C809.374 7.07401 822.57 16.8114 824.455 30.9463C826.497 44.9241 816.757 57.9596 802.776 60.0013C801.519 60.1583 800.263 60.3154 799.006 60.3154C786.439 60.3154 775.442 51.0492 773.557 38.3278ZM1003.07 54.1903C988.929 52.9338 978.404 40.5266 979.504 26.3917C980.603 12.0997 993.171 1.73416 1007.31 2.83354C1021.45 3.93292 1031.97 16.4973 1030.87 30.6321C1029.77 43.9818 1018.46 54.1903 1005.11 54.1903C1004.48 54.1903 1003.7 54.1903 1003.07 54.1903ZM876.138 26.5487C875.824 12.2568 886.977 0.320674 901.115 0.00656555C915.411 -0.307543 927.192 10.6863 927.664 24.9782C928.135 39.1131 916.981 50.8921 902.686 51.5204C902.372 51.5204 902.215 51.5204 901.901 51.5204C887.92 51.3633 876.609 40.3695 876.138 26.5487Z" fill="#46E4E4"/>
<circle cx="2452.5" cy="3407.5" r="160.5" fill="white"/>
<circle cx="2773.5" cy="3567.5" r="160.5" fill="white"/>
</svg>
